<?xml version="1.0" standalone="no"?>
<!DOCTYPE svg PUBLIC "-//W3C//DTD SVG 20010904//EN"
 "http://www.w3.org/TR/2001/REC-SVG-20010904/DTD/svg10.dtd">
<svg version="1.0" xmlns="http://www.w3.org/2000/svg"
 width="1665.000000pt" height="1665.000000pt" viewBox="0 0 1665.000000 1665.000000"
 preserveAspectRatio="xMidYMid meet">
<metadata>
Created by potrace 1.14, written by Peter Selinger 2001-2017
</metadata>
<g transform="translate(0.000000,1665.000000) scale(0.100000,-0.100000)"
fill="#000000" stroke="none">
<path d="M463 12048 c1 -2532 5 -4612 9 -4624 3 -12 9 -45 13 -75 3 -30 9 -63
12 -74 3 -11 7 -31 8 -45 12 -116 113 -413 207 -600 277 -556 726 -968 1303
-1193 153 -59 381 -120 505 -133 25 -3 52 -8 60 -10 43 -14 353 -18 1670 -18
l1445 -1 1 5688 1 5687 -2619 0 -2618 0 3 -4602z"/>
<path d="M10928 12103 c0 -2502 -2 -4559 -3 -4573 -8 -100 -25 -228 -35 -270
-5 -19 -12 -48 -14 -65 -3 -16 -8 -40 -11 -52 -3 -13 -7 -31 -9 -40 -25 -109
-104 -320 -176 -468 -187 -383 -474 -710 -840 -955 -47 -31 -92 -60 -100 -63
-8 -4 -31 -17 -50 -28 -184 -112 -525 -235 -757 -274 -67 -11 -89 -14 -143
-21 -30 -3 -68 -8 -85 -10 -16 -2 -699 -4 -1517 -5 l-1488 -1 -1 -27 c-1 -36
-1 -5200 0 -5229 l1 -23 1953 4 c1073 2 1972 6 1997 10 25 3 86 8 135 11 50 4
101 8 115 10 14 3 57 7 95 11 39 3 81 8 95 10 14 3 41 7 60 9 922 116 1926
478 2737 988 203 127 486 326 629 441 351 283 680 594 919 871 28 32 60 69 72
82 12 13 34 41 50 61 15 21 33 43 39 48 14 12 173 217 229 295 22 30 44 60 48
65 29 34 193 283 277 419 355 581 604 1161 789 1841 17 61 33 121 36 135 2 14
25 120 49 235 25 116 48 233 52 260 3 28 7 52 9 55 1 3 6 32 10 65 3 32 8 62
10 65 1 3 6 36 10 73 3 37 8 76 10 85 2 15 11 102 21 212 5 65 16 214 20 290
3 56 7 9825 5 9973 l-1 27 -2620 0 -2620 0 -2 -4547z"/>
</g>
</svg>
