<?xml version="1.0" encoding="UTF-8"?>
<svg width="174px" height="32px" viewBox="0 0 174 32" xmlns="http://www.w3.org/2000/svg" xmlns:xlink="http://www.w3.org/1999/xlink" version="1.1">
 <!-- Generated by Pixelmator Pro 2.0.5 -->
 <path id="Path" d="M164.4 20.6 L164.4 24 160.9 24 160.9 20.6 Z" fill="#ff6800" fill-opacity="1" stroke="none"/>
 <path id="Path-1" d="M0 0 L16 0 16 32 0 32 Z" fill="#ffbdbd" fill-opacity="1" stroke="none"/>
 <path id="Path-2" d="M48 16 C48 24.837 40.837 32 32 32 23.163 32 16 24.837 16 16 16 7.163 23.163 0 32 0 40.837 0 48 7.163 48 16 Z" fill="#4c40f7" fill-opacity="1" stroke="none"/>
 <path id="ULIDU" d="M144.09 9.46 L144.09 17.86 C144.09 18.7 144.297 19.347 144.71 19.8 145.123 20.253 145.73 20.48 146.53 20.48 147.33 20.48 147.943 20.253 148.37 19.8 148.797 19.347 149.01 18.7 149.01 17.86 L149.01 9.46 152.43 9.46 152.43 17.84 C152.43 19.093 152.163 20.153 151.63 21.02 151.097 21.887 150.38 22.54 149.48 22.98 148.58 23.42 147.577 23.64 146.47 23.64 145.363 23.64 144.373 23.423 143.5 22.99 142.627 22.557 141.937 21.903 141.43 21.03 140.923 20.157 140.67 19.093 140.67 17.84 L140.67 9.46 Z M124.45 9.46 C125.93 9.46 127.223 9.753 128.33 10.34 129.437 10.927 130.293 11.75 130.9 12.81 131.507 13.87 131.81 15.093 131.81 16.48 131.81 17.853 131.507 19.073 130.9 20.14 130.293 21.207 129.433 22.033 128.32 22.62 127.207 23.207 125.917 23.5 124.45 23.5 L119.19 23.5 119.19 9.46 124.45 9.46 Z M124.23 20.54 C125.523 20.54 126.53 20.187 127.25 19.48 127.97 18.773 128.33 17.773 128.33 16.48 128.33 15.187 127.97 14.18 127.25 13.46 126.53 12.74 125.523 12.38 124.23 12.38 L122.61 12.38 122.61 20.54 124.23 20.54 Z M109.71 9.46 L109.71 23.5 106.29 23.5 106.29 9.46 Z M93.17 20.86 L97.65 20.86 97.65 23.5 89.75 23.5 89.75 9.46 93.17 9.46 Z M72.01 9.46 L72.01 17.86 C72.01 18.7 72.217 19.347 72.63 19.8 73.043 20.253 73.65 20.48 74.45 20.48 75.25 20.48 75.863 20.253 76.29 19.8 76.717 19.347 76.93 18.7 76.93 17.86 L76.93 9.46 80.35 9.46 80.35 17.84 C80.35 19.093 80.083 20.153 79.55 21.02 79.017 21.887 78.3 22.54 77.4 22.98 76.5 23.42 75.497 23.64 74.39 23.64 73.283 23.64 72.293 23.423 71.42 22.99 70.547 22.557 69.857 21.903 69.35 21.03 68.843 20.157 68.59 19.093 68.59 17.84 L68.59 9.46 Z" fill="#111029" fill-opacity="1" stroke="none"/>
</svg>
